<?xml version="1.0" encoding="utf-8"?>
<!-- Generator: Adobe Illustrator 16.0.0, SVG Export Plug-In . SVG Version: 6.00 Build 0)  -->
<!DOCTYPE svg PUBLIC "-//W3C//DTD SVG 1.1//EN" "http://www.w3.org/Graphics/SVG/1.1/DTD/svg11.dtd">
<svg version="1.1" id="Layer_1" xmlns="http://www.w3.org/2000/svg" xmlns:xlink="http://www.w3.org/1999/xlink" x="0px" y="0px"
	 width="5760px" height="256.104px" viewBox="0 0 5760 256.104" enable-background="new 0 0 5760 256.104" xml:space="preserve">
<g>
	<path fill="#CB1E50" d="M0,114.795c121.796,28,273.796,66.667,491.129,5.333c264.626-74.681,416.667-90.667,627.333-18
		c273.396,94.304,463.596,35.19,616.667-21.333c293.86-108.512,525.837-106.824,806.446-0.348
		c598.698,227.174,758.009,122.678,939.078,42.444c167-74,393.488-172.591,645.476-81.096c121.144,43.987,320.049,184.506,577,179
		c280-6,625.486-202,1056.871-106v141.309H0V114.795z"/>
	<path fill="#E7165D" d="M0,157.177c164.327,59.618,342.795,45.618,557.796-39.049c242.612-95.54,438.837-53.94,611.765,13.468
		c269.455,105.035,524.404,17.174,682.693-30.604c264.211-79.748,504.601-41.485,653.447-2.101
		c359.236,95.05,524.974,205.49,830.199,86.051c316.537-123.867,609.317-210.178,931.229-62.146
		c274,126,399.884,106.925,525.109,98.784c177.056-11.51,599.21-178.118,967.762-64.402v98.927H0V157.177z"/>
	<path fill="#FFFFFF" d="M0,214.573c274.994,80.812,403.129-4.777,612.129-95.777c275.455-119.935,463.657-0.523,642.568,57.871
		c279.025,91.07,556.754-3.617,665.275-30.734c188.249-47.041,464.127-43.249,665.648,2.184
		c255.703,57.646,470.738,151.178,869.508,18.68c259.875-86.348,536-97.769,804-16c251.557,76.752,435.64,119.716,722.648,47.996
		c348.1-86.985,642.838-35.496,778.223,15.781v41.531H0V214.573z"/>
</g>
</svg>
