<?xml version="1.0" encoding="utf-8"?>
<!-- Generator: Adobe Illustrator 16.0.0, SVG Export Plug-In . SVG Version: 6.00 Build 0)  -->
<!DOCTYPE svg PUBLIC "-//W3C//DTD SVG 1.1//EN" "http://www.w3.org/Graphics/SVG/1.1/DTD/svg11.dtd">
<svg version="1.1" id="Layer_1" xmlns="http://www.w3.org/2000/svg" xmlns:xlink="http://www.w3.org/1999/xlink" x="0px" y="0px"
	 width="3110.258px" height="310.606px" viewBox="0 0 3110.258 310.606" enable-background="new 0 0 3110.258 310.606"
	 xml:space="preserve" preserveAspectRatio="xMinYMin slice">
<path fill="#CE1E4F" d="M0,90.606C77.253,167.86,248.258,183,390.258,99c193.721-114.596,375.686-58.682,515.751,15.702
	c218.249,115.905,356.06,43.021,480.249-18.579c186-92.258,394-141.516,620-19.516c307.914,166.219,544.815,118.907,692,32
	c149.883-88.5,313.362-106.667,412-18v220H0V90.606z"/>
<path fill="#E8195B" d="M0,180.606c151.257,71.75,310.233,21.187,452.233-62.813C645.954,3.198,807.236,77.995,947.301,152.378
	c218.249,115.905,424.747,18.95,552.957-33.772c214-88,404.472-34.346,525.031,9.113c290.969,104.887,527.712,96.662,642.97,34.888
	c265.876-142.5,328.361-35.667,441.999,18v130H0V180.606z"/>
<path fill="#FFFFFF" d="M0,243.94c168.507,68,350.258-29.333,492.258-113.333c193.721-114.596,379.09,7.069,524,71.506
	c226,100.494,452.79-3.784,581-56.506c214-88,333.774-25.133,497,25c280,86,452.916,77.009,560,26.364
	c270.001-127.697,316.696-3.697,456,46.97v66.667H0V243.94z"/>
</svg>
