<?xml version="1.0" encoding="utf-8"?>
<!-- Generator: Adobe Illustrator 16.0.0, SVG Export Plug-In . SVG Version: 6.00 Build 0)  -->
<!DOCTYPE svg PUBLIC "-//W3C//DTD SVG 1.1//EN" "http://www.w3.org/Graphics/SVG/1.1/DTD/svg11.dtd">
<svg version="1.1" id="contectUs" xmlns="http://www.w3.org/2000/svg" xmlns:xlink="http://www.w3.org/1999/xlink" x="0px" y="0px"
	 width="645px" height="645px" viewBox="0 0 579.879 645.406" enable-background="new 0 0 579.879 645.406"
	 xml:space="preserve">
<g>
	<g id="circles_1">
		<g opacity="0.4">
			<path fill="#C0B8EF" d="M430.498,578.488c-122.053,111.25-327.503,93.719-389.313-128.182
				c-58.98-211.755-15.831-318.983,72.909-372.455c88.763-53.428,199.354-72.719,359.604,75.192
				C603.72,273.041,576.404,445.521,430.498,578.488z"/>
		</g>
		<g opacity="0.4">
			<path fill="#6EBAE5" d="M135.659,65.878C242.067-44.805,375.081-14.123,482.77,143.65
				c84.528,123.805,83.04,270.684,9.182,389.963c-96.678,156.092-291.134,77.535-392.688-47.205
				C4.929,370.557,8.452,198.196,135.659,65.878z"/>
		</g>
		<g opacity="0.4">
			<path fill="#4A8BE3" d="M552.586,222.956c68.807,147.507,8.374,314.284-191.043,349.878
				c-109.499,19.531-279.44,5.316-340.915-122.707c-44.621-92.939-24.3-220.091,135.205-340.37
				C285.25,12.18,470.362,46.618,552.586,222.956z"/>
		</g>
		<g opacity="0.4">
			<path fill="#C0B8EF" d="M430.498,578.488c-122.053,111.25-327.503,93.719-389.313-128.182
				c-58.98-211.755-15.831-318.983,72.909-372.455c88.763-53.428,199.354-72.719,359.604,75.192
				C603.72,273.041,576.404,445.521,430.498,578.488z"/>
		</g>
		<g opacity="0.4">
			<path fill="#6EBAE5" d="M135.659,65.878C242.067-44.805,375.081-14.123,482.77,143.65
				c84.528,123.805,83.04,270.684,9.182,389.963c-96.678,156.092-291.134,77.535-392.688-47.205
				C4.929,370.557,8.452,198.196,135.659,65.878z"/>
		</g>
		<g opacity="0.4">
			<path fill="#4A8BE3" d="M552.586,222.956c68.807,147.507,8.374,314.284-191.043,349.878
				c-109.499,19.531-279.44,5.316-340.915-122.707c-44.621-92.939-24.3-220.091,135.205-340.37
				C285.25,12.18,470.362,46.618,552.586,222.956z"/>
		</g>
		<g opacity="0.3">
			<path fill="#4A8BE3" d="M482.77,143.65c-11.757-17.2-23.8-32.918-36.079-47.066c-89.557-58.471-203.036-53.042-290.857,13.173
				c-50.479,38.069-87.038,76.859-112,115.004c-24.529,93.545-3.921,188.774,55.429,261.647
				c26.778,32.91,60.062,62.607,96.298,85.645c57.426,11.453,117.601,9.414,165.982,0.781
				c61.919-11.057,110.438-34.76,145.86-66.588C565.533,392.371,560.917,258.15,482.77,143.65z"/>
		</g>
	</g>
</g>
</svg>
