<?xml version="1.0" encoding="utf-8"?>
<!-- Generator: Adobe Illustrator 16.0.0, SVG Export Plug-In . SVG Version: 6.00 Build 0)  -->
<!DOCTYPE svg PUBLIC "-//W3C//DTD SVG 1.1//EN" "http://www.w3.org/Graphics/SVG/1.1/DTD/svg11.dtd">
<svg version="1.1" id="greenBlob" xmlns="http://www.w3.org/2000/svg" xmlns:xlink="http://www.w3.org/1999/xlink" x="0px" y="0px"
	 width="33.846px" height="36.395px" viewBox="0 0 33.846 36.395" enable-background="new 0 0 33.846 36.395" xml:space="preserve" preserveAspectRatio="xMinYMin">
<g>
	<g id="circles_1">
		<g opacity="0.6">
			<path fill="#FFF65B" d="M12.427,1.267c8.424-3.601,15.914,0.519,18.642,11.781c2.142,8.841-1.777,19.955-7.436,21.252
				c-5.657,1.297-14.71-3.724-20.763-13.158C-2.043,13.487,2.357,5.572,12.427,1.267z"/>
		</g>
		<g opacity="0.45">
			<path fill="#20961C" d="M24.241,33.464c-8.178,4.905-15.688,3.938-19.369-5.067C1.983,21.329,1.073,11.688,7.474,6.083
				c8.374-7.332,18.106-0.558,21.988,6.689C33.067,19.504,34.016,27.6,24.241,33.464z"/>
		</g>
		<g opacity="0.45">
			<path fill="#20961C" d="M29.074,8.983c6.352,7.113,6.81,14.67-1.348,19.974c-6.401,4.164-15.7,6.865-22.404,1.629
				C-3.45,23.734,1.38,12.905,7.771,7.733C13.706,2.93,21.48,0.481,29.074,8.983z"/>
		</g>
		<g opacity="0.6">
			<path fill="#ACE54A" d="M33.462,17.508c1.771,9.06-5.125,18.728-17.646,15.733C3.866,30.385-0.035,25.332,0,19.494
				C0.036,13.652,2.361,7.666,14.214,3.782C23.832,0.629,31.346,6.679,33.462,17.508z"/>
		</g>
		<g opacity="0.6">
			<path fill="#FFF65B" d="M12.427,1.267c8.424-3.601,15.914,0.519,18.642,11.781c2.142,8.841-1.777,19.955-7.436,21.252
				c-5.657,1.297-14.71-3.724-20.763-13.158C-2.043,13.487,2.357,5.572,12.427,1.267z"/>
		</g>
		<g opacity="0.45">
			<path fill="#20961C" d="M24.241,33.464c-8.178,4.905-15.688,3.938-19.369-5.067C1.983,21.329,1.073,11.688,7.474,6.083
				c8.374-7.332,18.106-0.558,21.988,6.689C33.067,19.504,34.016,27.6,24.241,33.464z"/>
		</g>
		<g opacity="0.45">
			<path fill="#20961C" d="M29.074,8.983c6.352,7.113,6.81,14.67-1.348,19.974c-6.401,4.164-15.7,6.865-22.404,1.629
				C-3.45,23.734,1.38,12.905,7.771,7.733C13.706,2.93,21.48,0.481,29.074,8.983z"/>
		</g>
		<g opacity="0.6">
			<path fill="#ACE54A" d="M33.462,17.508c1.771,9.06-5.125,18.728-17.646,15.733C3.866,30.385-0.035,25.332,0,19.494
				C0.036,13.652,2.361,7.666,14.214,3.782C23.832,0.629,31.346,6.679,33.462,17.508z"/>
		</g>
	</g>
	<g>
		<image overflow="visible" width="219" height="219" xlink:href="javascript:;" transform="matrix(0.119 0 0 0.119 6.7876 6.5659)"></image>
	</g>
</g>
</svg>
