<?xml version="1.0" encoding="utf-8"?>
<!-- Generator: Adobe Illustrator 16.0.0, SVG Export Plug-In . SVG Version: 6.00 Build 0)  -->
<!DOCTYPE svg PUBLIC "-//W3C//DTD SVG 1.1//EN" "http://www.w3.org/Graphics/SVG/1.1/DTD/svg11.dtd">
<svg version="1.1" id="yellow" xmlns="http://www.w3.org/2000/svg" xmlns:xlink="http://www.w3.org/1999/xlink" x="0px" y="0px"
	 width="380px" height="380px" viewBox="0 0 380 380" enable-background="new 0 0 380 380" xml:space="preserve">
<g>
	<g>
		<g opacity="0.4">
			<path fill="#FDF475" d="M147.657,30.553c79.331-33.907,149.872,4.885,175.559,110.954
				c20.168,83.258-16.737,187.928-70.024,200.141c-53.278,12.215-138.533-35.064-195.537-123.918
				C11.387,145.636,52.827,71.094,147.657,30.553z"/>
		</g>
		<g opacity="0.3">
			<path fill="#499233" d="M258.919,333.777c-77.012,46.191-147.746,37.08-182.411-47.725
				c-27.204-66.566-35.776-157.358,24.5-210.142c78.862-69.049,170.52-5.251,207.078,63
				C342.041,202.307,350.973,278.549,258.919,333.777z"/>
		</g>
		<g opacity="0.3">
			<path fill="#499233" d="M304.436,103.219c59.816,66.991,64.129,138.158-12.69,188.107
				c-60.287,39.215-147.859,64.652-210.997,15.338c-82.615-64.525-37.127-166.51,23.057-215.216
				C159.704,46.216,232.921,23.151,304.436,103.219z"/>
		</g>
		<g opacity="0.4">
			<path fill="#B7E164" d="M345.757,183.508c16.675,85.32-48.264,176.369-166.179,148.171
				c-112.542-26.9-149.285-74.494-148.953-129.477c0.339-55.015,22.237-111.39,133.859-147.966
				C255.064,24.55,325.829,81.524,345.757,183.508z"/>
		</g>
		<g opacity="0.4">
			<path fill="#FDF475" d="M147.657,30.553c79.331-33.907,149.872,4.885,175.559,110.954
				c20.168,83.258-16.737,187.928-70.024,200.141c-53.278,12.215-138.533-35.064-195.537-123.918
				C11.387,145.636,52.827,71.094,147.657,30.553z"/>
		</g>
		<g opacity="0.3">
			<path fill="#499233" d="M258.919,333.777c-77.012,46.191-147.746,37.08-182.411-47.725
				c-27.204-66.566-35.776-157.358,24.5-210.142c78.862-69.049,170.52-5.251,207.078,63
				C342.041,202.307,350.973,278.549,258.919,333.777z"/>
		</g>
		<g opacity="0.3">
			<path fill="#499233" d="M304.436,103.219c59.816,66.991,64.129,138.158-12.69,188.107
				c-60.287,39.215-147.859,64.652-210.997,15.338c-82.615-64.525-37.127-166.51,23.057-215.216
				C159.704,46.216,232.921,23.151,304.436,103.219z"/>
		</g>
		<g opacity="0.4">
			<path fill="#B7E164" d="M345.757,183.508c16.675,85.32-48.264,176.369-166.179,148.171
				c-112.542-26.9-149.285-74.494-148.953-129.477c0.339-55.015,22.237-111.39,133.859-147.966
				C255.064,24.55,325.829,81.524,345.757,183.508z"/>
		</g>
	</g>
	<g>
		<g opacity="0.4">
			<path fill="#FDF475" d="M147.657,30.553c79.331-33.907,149.872,4.885,175.559,110.954
				c20.168,83.258-16.737,187.928-70.024,200.141c-53.278,12.215-138.533-35.064-195.537-123.918
				C11.387,145.636,52.827,71.094,147.657,30.553z"/>
		</g>
		<g opacity="0.3">
			<path fill="#499233" d="M258.919,333.777c-77.012,46.191-147.746,37.08-182.411-47.725
				c-27.204-66.566-35.776-157.358,24.5-210.142c78.862-69.049,170.52-5.251,207.078,63
				C342.041,202.307,350.973,278.549,258.919,333.777z"/>
		</g>
		<g opacity="0.3">
			<path fill="#499233" d="M304.436,103.219c59.816,66.991,64.129,138.158-12.69,188.107
				c-60.287,39.215-147.859,64.652-210.997,15.338c-82.615-64.525-37.127-166.51,23.057-215.216
				C159.704,46.216,232.921,23.151,304.436,103.219z"/>
		</g>
		<g opacity="0.4">
			<path fill="#B7E164" d="M345.757,183.508c16.675,85.32-48.264,176.369-166.179,148.171
				c-112.542-26.9-149.285-74.494-148.953-129.477c0.339-55.015,22.237-111.39,133.859-147.966
				C255.064,24.55,325.829,81.524,345.757,183.508z"/>
		</g>
		<g opacity="0.4">
			<path fill="#FDF475" d="M147.657,30.553c79.331-33.907,149.872,4.885,175.559,110.954
				c20.168,83.258-16.737,187.928-70.024,200.141c-53.278,12.215-138.533-35.064-195.537-123.918
				C11.387,145.636,52.827,71.094,147.657,30.553z"/>
		</g>
		<g opacity="0.3">
			<path fill="#499233" d="M258.919,333.777c-77.012,46.191-147.746,37.08-182.411-47.725
				c-27.204-66.566-35.776-157.358,24.5-210.142c78.862-69.049,170.52-5.251,207.078,63
				C342.041,202.307,350.973,278.549,258.919,333.777z"/>
		</g>
		<g opacity="0.3">
			<path fill="#499233" d="M304.436,103.219c59.816,66.991,64.129,138.158-12.69,188.107
				c-60.287,39.215-147.859,64.652-210.997,15.338c-82.615-64.525-37.127-166.51,23.057-215.216
				C159.704,46.216,232.921,23.151,304.436,103.219z"/>
		</g>
		<g opacity="0.4">
			<path fill="#B7E164" d="M345.757,183.508c16.675,85.32-48.264,176.369-166.179,148.171
				c-112.542-26.9-149.285-74.494-148.953-129.477c0.339-55.015,22.237-111.39,133.859-147.966
				C255.064,24.55,325.829,81.524,345.757,183.508z"/>
		</g>
	</g>
</g>
<image overflow="visible" width="380" height="380" xlink:href="did-you-Know-1.png" >
</image>
</svg>
