<?xml version="1.0" encoding="utf-8"?>
<!-- Generator: Adobe Illustrator 16.0.0, SVG Export Plug-In . SVG Version: 6.00 Build 0)  -->
<!DOCTYPE svg PUBLIC "-//W3C//DTD SVG 1.1//EN" "http://www.w3.org/Graphics/SVG/1.1/DTD/svg11.dtd">
<svg version="1.1" id="yellow1" xmlns="http://www.w3.org/2000/svg" xmlns:xlink="http://www.w3.org/1999/xlink" x="0px" y="0px"
	 width="439px" height="439px" viewBox="0 0 439 439" enable-background="new 0 0 439 439" xml:space="preserve">
<g>
	<g id="circles_1">
		<g>
			<path fill="#FFB430" d="M14.443,219.273C2.842,103.375,100.824-9.96,254.594,42.357
				c146.778,49.94,189.854,118.006,182.548,191.333c-7.318,73.314-43.588,145.779-197.044,180.663
				C115.58,442.631,28.292,357.808,14.443,219.273z"/>
		</g>
		<g opacity="0.4">
			<path fill="#C2E235" d="M434.789,251.088c17.965,106.51-56.552,172.198-193.188,172.319
				c-107.219,0.087-190.871-59.366-227.72-150.227C-34.328,154.264,88.183,36.898,203.218,27.177
				C310.067,18.145,413.287,123.792,434.789,251.088z"/>
		</g>
		<g opacity="0.5">
			<path fill="#FFB61A" d="M166.209,432.662C52.123,414.093,0.149,319.584,47.2,181.138C84.135,72.484,200.976-19.449,270.046,4.948
				c69.039,24.422,130.18,99.03,130.919,240.459C401.581,360.173,302.582,454.854,166.209,432.662z"/>
		</g>
		<g opacity="0.2">
			
				<linearGradient id="SVGID_1_" gradientUnits="userSpaceOnUse" x1="-58.6958" y1="246.3794" x2="360.707" y2="246.3794" gradientTransform="matrix(0.6222 0.7828 -0.7828 0.6222 311.6118 -37.4832)">
				<stop  offset="0" style="stop-color:#FFA415"/>
				<stop  offset="1" style="stop-color:#FFEB3A"/>
			</linearGradient>
			<path fill="url(#SVGID_1_)" d="M120.663,43.108c97.022-54.832,193.088-15.081,241.162,117.415
				c37.723,103.996,5.28,243.615-61.381,266.866c-66.668,23.275-157.621,4.018-243.442-101.915
				C-12.646,239.543,4.708,108.637,120.663,43.108z"/>
		</g>
		<g>
			<path fill="#FFB430" d="M14.443,219.273C2.842,103.375,100.824-9.96,254.594,42.357
				c146.778,49.94,189.854,118.006,182.548,191.333c-7.318,73.314-43.588,145.779-197.044,180.663
				C115.58,442.631,28.292,357.808,14.443,219.273z"/>
		</g>
		<g opacity="0.4">
			<path fill="#C2E235" d="M434.789,251.088c17.965,106.51-56.552,172.198-193.188,172.319
				c-107.219,0.087-190.871-59.366-227.72-150.227C-34.328,154.264,88.183,36.898,203.218,27.177
				C310.067,18.145,413.287,123.792,434.789,251.088z"/>
		</g>
		<g opacity="0.7">
			<path fill="#FFB61A" d="M166.209,432.662C52.123,414.093,0.149,319.584,47.2,181.138C84.135,72.484,200.976-19.449,270.046,4.948
				c69.039,24.422,130.18,99.03,130.919,240.459C401.581,360.173,302.582,454.854,166.209,432.662z"/>
		</g>
		<g opacity="0.5">
			
				<linearGradient id="SVGID_2_" gradientUnits="userSpaceOnUse" x1="-3.0464" y1="98.1895" x2="288.0337" y2="389.2695" gradientTransform="matrix(0.6222 0.7828 -0.7828 0.6222 311.6118 -37.4832)">
				<stop  offset="0" style="stop-color:#FFEB3A"/>
				<stop  offset="1" style="stop-color:#FFA415"/>
			</linearGradient>
			<path fill="url(#SVGID_2_)" d="M120.663,43.108c97.022-54.832,223.727-13.135,271.794,119.374
				c37.734,103.971-25.352,241.656-92.013,264.907c-66.668,23.275-157.621,4.018-243.442-101.915
				C-12.646,239.543,4.708,108.637,120.663,43.108z"/>
		</g>
		<g>
			<g opacity="0.7">
				<path fill="#FFB61A" d="M392.457,162.482L392.457,162.482C373.26,73.925,324.076,24.071,270.046,4.948
					c-26.479-9.364-59.995-1.614-93.338,17.633C261.753,6.76,353.262,54.42,392.457,162.482z"/>
			</g>
			<g opacity="0.7">
				<path fill="#FFB61A" d="M29.943,280.39c1.713,83.53,52.084,138.584,136.266,152.271c21.255,3.462,41.605,4.067,60.809,2.207
					c-53.113-6.58-112.715-38.643-170.016-109.395C45.66,311.478,36.628,296.298,29.943,280.39z"/>
			</g>
			<g opacity="0.5">
				
					<linearGradient id="SVGID_3_" gradientUnits="userSpaceOnUse" x1="-86.2471" y1="192.312" x2="106.6591" y2="385.2182" gradientTransform="matrix(0.6222 0.7828 -0.7828 0.6222 311.6118 -37.4832)">
					<stop  offset="0" style="stop-color:#FFB61A"/>
					<stop  offset="0.4485" style="stop-color:#FFAC17"/>
					<stop  offset="1" style="stop-color:#FFA415"/>
				</linearGradient>
				<path fill="url(#SVGID_3_)" d="M47.2,181.138c22.764-66.982,75.921-127.629,129.508-158.557
					c-19.24,3.585-38.148,10.412-56.045,20.527C23.592,97.978-4.373,198.634,29.943,280.39
					C29.333,250.718,34.859,217.438,47.2,181.138z"/>
			</g>
			<g opacity="0.5">
				
					<linearGradient id="SVGID_4_" gradientUnits="userSpaceOnUse" x1="166.9302" y1="101.0479" x2="371.583" y2="305.7007" gradientTransform="matrix(0.6222 0.7828 -0.7828 0.6222 311.6118 -37.4832)">
					<stop  offset="0" style="stop-color:#FFEB3A"/>
					<stop  offset="1" style="stop-color:#FFA415"/>
				</linearGradient>
				<path fill="url(#SVGID_4_)" d="M392.457,162.482c5.329,24.607,8.348,52.195,8.508,82.925
					c0.506,96.887-69.951,179.431-173.946,189.461c26.437,3.289,51.271,0.257,73.426-7.479
					C367.105,404.138,430.191,266.454,392.457,162.482z"/>
			</g>
			<g opacity="0.5">
				
					<linearGradient id="SVGID_5_" gradientUnits="userSpaceOnUse" x1="4.5596" y1="90.5825" x2="295.6245" y2="381.6474" gradientTransform="matrix(0.6222 0.7828 -0.7828 0.6222 311.6118 -37.4832)">
					<stop  offset="0" style="stop-color:#FFEB3A"/>
					<stop  offset="1" style="stop-color:#FFA415"/>
				</linearGradient>
				<path fill="url(#SVGID_5_)" d="M403.663,238.311c-0.165-30.755-2.717-49.152-11.206-75.829l0,0
					C358.398,68.603,284.856,20.289,210.371,19.623c-11.25-0.098-21.877,0.469-32.523,4.387c-8.25,3.044-16.358,7.96-23.886,13.505
					C108.618,70.883,66.743,123.669,47.2,181.138c-12.34,36.3-17.866,69.58-17.256,99.252c6.685,15.908,15.717,31.088,27.059,45.084
					c57.301,70.752,116.903,102.814,170.016,109.395C331.014,424.838,404.175,335.172,403.663,238.311z"/>
			</g>
		</g>
	</g>
	<g>
		<image overflow="visible" width="340" height="371" xlink:href="images/glass.png" transform="matrix(1 0 0 1 83.4434 26.2134)"></image>
	</g>
</g>

</svg>
