<?xml version="1.0" encoding="utf-8"?>
<!-- Generator: Adobe Illustrator 16.0.0, SVG Export Plug-In . SVG Version: 6.00 Build 0)  -->
<!DOCTYPE svg PUBLIC "-//W3C//DTD SVG 1.1//EN" "http://www.w3.org/Graphics/SVG/1.1/DTD/svg11.dtd">
<svg version="1.1" id="Layer_1" xmlns="http://www.w3.org/2000/svg" xmlns:xlink="http://www.w3.org/1999/xlink" x="0px" y="0px"
	 width="420px" height="420px" viewBox="0 0 420 420" enable-background="new 0 0 420 420" xml:space="preserve">
<g>
	<g>
		<g opacity="0.4">
			<path fill="#DD4E47" d="M80.776,353.734c-90.833-60.916-116.59-203.229,10.149-288.117
				C211.868-15.389,286.132-7.041,335.154,42.573c49,49.637,80.696,120.663,17.446,257.735
				C301.295,411.527,189.343,426.561,80.776,353.734z"/>
		</g>
		<g opacity="0.4">
			<path fill="#A5281C" d="M346.432,54.828c87.69,50.447,92.366,146.339,13.619,249.792
				c-61.786,81.196-153.235,108.721-240.458,81.946C5.449,351.521,19.54,204.787,78.867,111.896
				C133.968,25.616,241.602-5.48,346.432,54.828z"/>
		</g>
		<g opacity="0.4">
			<path fill="#A01C18" d="M323.27,367.229c-79.305,75.17-193.621,66.702-251.279-61.213
				C40.335,235.771,18.854,118.112,87.368,51.684C137.111,3.464,219.67-7.493,322.789,76.99
				C406.447,145.54,418.079,277.386,323.27,367.229z"/>
		</g>
		<g opacity="0.4">
			<path fill="#DD4E47" d="M80.776,353.734c-90.833-60.916-116.59-203.229,10.149-288.117
				C211.868-15.389,286.132-7.041,335.154,42.573c49,49.637,80.696,120.663,17.446,257.735
				C301.295,411.527,189.343,426.561,80.776,353.734z"/>
		</g>
		<g opacity="0.4">
			<path fill="#A5281C" d="M346.432,54.828c87.69,50.447,92.366,146.339,13.619,249.792
				c-61.786,81.196-153.235,108.721-240.458,81.946C5.449,351.521,19.54,204.787,78.867,111.896
				C133.968,25.616,241.602-5.48,346.432,54.828z"/>
		</g>
		<g opacity="0.4">
			<path fill="#A01C18" d="M323.27,367.229c-79.305,75.17-193.621,66.702-251.279-61.213
				C40.335,235.771,18.854,118.112,87.368,51.684C137.111,3.464,219.67-7.493,322.789,76.99
				C406.447,145.54,418.079,277.386,323.27,367.229z"/>
		</g>
		<g opacity="0.3">
			<path fill="#A01C18" d="M360.052,304.621c8.584-11.29,16.193-22.485,22.786-33.536c20.33-71.907-3.277-147.577-60.048-194.095
				c-32.638-26.734-63.235-43.919-91.37-53.388c-62.448,1.584-117.894,34.012-152.553,88.294
				c-15.657,24.497-28.155,52.769-35.993,81.743c3.13,41.046,15.13,81.337,29.115,112.376
				c17.907,39.715,41.275,67.912,67.352,85.683C220.402,408.886,302.907,379.695,360.052,304.621z"/>
		</g>
	</g>
	<path fill="#FFFFFF" d="M364.576,210.002c0,85.367-69.207,154.572-154.576,154.572S55.425,295.369,55.425,210.002
		c0-85.372,69.207-154.576,154.575-154.576C295.369,55.427,364.576,124.63,364.576,210.002z"/>
	<image overflow="visible" enable-background="new    " width="420" height="420" xlink:href="Reasons-You-Need-Protinex.png" >
	</image>
</g>
</svg>
