<?xml version="1.0" encoding="utf-8"?>
<!-- Generator: Adobe Illustrator 16.0.0, SVG Export Plug-In . SVG Version: 6.00 Build 0)  -->
<!DOCTYPE svg PUBLIC "-//W3C//DTD SVG 1.1//EN" "http://www.w3.org/Graphics/SVG/1.1/DTD/svg11.dtd">
<svg version="1.1" id="recipesRed" xmlns="http://www.w3.org/2000/svg" xmlns:xlink="http://www.w3.org/1999/xlink" x="0px" y="0px"
	 width="468px" height="468px" viewBox="0 0 468 468" enable-background="new 0 0 468 468" xml:space="preserve">
<g>
	<g id="circles_1">
		<g opacity="0.4">
			<path fill="#DD4E47" d="M87.28,398.146C-16.25,328.714-45.608,166.51,98.845,69.755C236.693-22.573,321.338-13.058,377.213,43.49
				c55.849,56.575,91.977,137.529,19.887,293.762C338.619,464.018,211.022,481.151,87.28,398.146z"/>
		</g>
		<g opacity="0.4">
			<path fill="#A5281C" d="M390.066,57.458c99.949,57.498,105.277,166.794,15.524,284.708
				c-70.422,92.546-174.655,123.917-274.068,93.4C1.422,395.622,17.483,228.379,85.104,122.503
				C147.906,24.162,270.583-11.28,390.066,57.458z"/>
		</g>
		<g opacity="0.4">
			<path fill="#A01C18" d="M363.665,413.525c-90.389,85.677-220.684,76.025-286.402-69.771
				c-36.077-80.06-60.562-214.167,17.531-289.881c56.693-54.96,150.794-67.448,268.324,28.844
				C458.471,160.85,471.729,311.125,363.665,413.525z"/>
		</g>
		<g opacity="0.4">
			<path fill="#DD4E47" d="M87.28,398.146C-16.25,328.714-45.608,166.51,98.845,69.755C236.693-22.573,321.338-13.058,377.213,43.49
				c55.849,56.575,91.977,137.529,19.887,293.762C338.619,464.018,211.022,481.151,87.28,398.146z"/>
		</g>
		<g opacity="0.4">
			<path fill="#A5281C" d="M390.066,57.458c99.949,57.498,105.277,166.794,15.524,284.708
				c-70.422,92.546-174.655,123.917-274.068,93.4C1.422,395.622,17.483,228.379,85.104,122.503
				C147.906,24.162,270.583-11.28,390.066,57.458z"/>
		</g>
		<g opacity="0.4">
			<path fill="#A01C18" d="M363.665,413.525c-90.389,85.677-220.684,76.025-286.402-69.771
				c-36.077-80.06-60.562-214.167,17.531-289.881c56.693-54.96,150.794-67.448,268.324,28.844
				C458.471,160.85,471.729,311.125,363.665,413.525z"/>
		</g>
		<g opacity="0.3">
			<path fill="#A01C18" d="M405.591,342.167c9.784-12.868,18.457-25.628,25.971-38.224c23.171-81.958-3.736-168.208-68.441-221.227
				c-37.196-30.472-72.073-50.06-104.143-60.851c-71.177,1.805-134.371,38.766-173.874,100.636
				c-17.845,27.921-32.091,60.145-41.023,93.17c3.565,46.786,17.243,92.708,33.185,128.083
				c20.41,45.269,47.043,77.408,76.766,97.662C246.423,461.006,340.456,427.736,405.591,342.167z"/>
		</g>
	</g>
	<g>
		<defs>
			<circle id="recipesRed_1_" cx="245.468" cy="230.14" r="188.581"/>
		</defs>
		<clipPath id="recipesRed_2_">
			<use xlink:href="#recipesRed_1_"  overflow="visible"/>
		</clipPath>
		<g clip-path="url(#recipesRed_2_)">
			<image overflow="visible" width="380" height="380" xlink:href="images/reciepeImg3.jpg"  transform="matrix(1 0 0 1 54.5002 40.5)">
			</image>
		</g>
	</g>
</g>
<g id="redButton" class="redButton">
	<circle fill="#A3271B" cx="368.609" cy="391.519" r="41.894"/>
	<g>
		<g>
			<path fill="#FFFFFF" d="M369.268,417.23c-14.19,0-25.714-11.521-25.714-25.713c0-14.191,11.522-25.713,25.714-25.713
				c14.192,0,25.715,11.521,25.715,25.713C394.981,405.71,383.459,417.23,369.268,417.23z M369.268,368.311
				c-12.78,0-23.207,10.426-23.207,23.209c0,12.781,10.427,23.207,23.207,23.207c12.781,0,23.207-10.426,23.207-23.207
				C392.475,378.736,382.049,368.311,369.268,368.311z"/>
		</g>
		<g>
			<path fill="#FFFFFF" d="M364.06,402.455c-0.521,0-0.977-0.131-1.432-0.391c-0.912-0.521-1.497-1.498-1.497-2.539V383.51
				c0-1.042,0.585-2.018,1.497-2.537c0.911-0.521,2.02-0.521,2.929,0l13.672,8.006c0.91,0.521,1.433,1.498,1.433,2.539
				c0,1.043-0.586,2.019-1.433,2.539l-13.672,8.008C365.102,402.324,364.58,402.455,364.06,402.455z"/>
		</g>
	</g>
</g>
</svg>
