<?xml version="1.0" encoding="utf-8"?>
<!-- Generator: Adobe Illustrator 16.0.0, SVG Export Plug-In . SVG Version: 6.00 Build 0)  -->
<!DOCTYPE svg PUBLIC "-//W3C//DTD SVG 1.1//EN" "http://www.w3.org/Graphics/SVG/1.1/DTD/svg11.dtd">
<svg version="1.1" id="yellow1" xmlns="http://www.w3.org/2000/svg" xmlns:xlink="http://www.w3.org/1999/xlink" x="0px" y="0px"
	 width="468px" height="468px" viewBox="0 0 468 468" enable-background="new 0 0 468 468" xml:space="preserve">
<g>
	<g>
		<g opacity="0.4">
			<path fill="#FDF475" d="M166.456,20.695c106.874-45.68,201.907,6.58,236.511,149.474
				c27.17,112.165-22.549,253.176-94.337,269.628C236.854,456.252,122,392.557,45.205,272.855
				C-17.126,175.732,38.702,75.31,166.456,20.695z"/>
		</g>
		<g opacity="0.3">
			<path fill="#499233" d="M316.347,429.192c-103.75,62.234-199.042,49.954-245.742-64.29
				c-36.648-89.68-48.198-211.993,33.007-283.101c106.243-93.022,229.721-7.074,278.972,84.872
				C428.328,252.077,440.359,354.791,316.347,429.192z"/>
		</g>
		<g opacity="0.3">
			<path fill="#499233" d="M377.665,118.589c80.586,90.249,86.396,186.123-17.097,253.414
				c-81.217,52.828-199.193,87.1-284.252,20.664c-111.298-86.929-50.017-224.32,31.062-289.937
				C182.685,41.795,281.322,10.722,377.665,118.589z"/>
		</g>
		<g opacity="0.4">
			<path fill="#B7E164" d="M433.334,226.753c22.463,114.942-65.021,237.601-223.875,199.615
				C57.844,390.127,8.345,326.008,8.792,251.939C9.25,177.824,38.751,101.875,189.127,52.601
				C311.156,12.606,406.486,89.361,433.334,226.753z"/>
		</g>
		<g opacity="0.4">
			<path fill="#FDF475" d="M166.456,20.695c106.874-45.68,201.907,6.58,236.511,149.474
				c27.17,112.165-22.549,253.176-94.337,269.628C236.854,456.252,122,392.557,45.205,272.855
				C-17.126,175.732,38.702,75.31,166.456,20.695z"/>
		</g>
		<g opacity="0.3">
			<path fill="#499233" d="M316.347,429.192c-103.75,62.234-199.042,49.954-245.742-64.29
				c-36.648-89.68-48.198-211.993,33.007-283.101c106.243-93.022,229.721-7.074,278.972,84.872
				C428.328,252.077,440.359,354.791,316.347,429.192z"/>
		</g>
		<g opacity="0.3">
			<path fill="#499233" d="M377.665,118.589c80.586,90.249,86.396,186.123-17.097,253.414
				c-81.217,52.828-199.193,87.1-284.252,20.664c-111.298-86.929-50.017-224.32,31.062-289.937
				C182.685,41.795,281.322,10.722,377.665,118.589z"/>
		</g>
		<g opacity="0.4">
			<path fill="#B7E164" d="M433.334,226.753c22.463,114.942-65.021,237.601-223.875,199.615
				C57.844,390.127,8.345,326.008,8.792,251.939C9.25,177.824,38.751,101.875,189.127,52.601
				C311.156,12.606,406.486,89.361,433.334,226.753z"/>
		</g>
	</g>
	<g>
		<g opacity="0.4">
			<path fill="#FDF475" d="M166.456,20.695c106.874-45.68,201.907,6.58,236.511,149.474
				c27.17,112.165-22.549,253.176-94.337,269.628C236.854,456.252,122,392.557,45.205,272.855
				C-17.126,175.732,38.702,75.31,166.456,20.695z"/>
		</g>
		<g opacity="0.3">
			<path fill="#499233" d="M316.347,429.192c-103.75,62.234-199.042,49.954-245.742-64.29
				c-36.648-89.68-48.198-211.993,33.007-283.101c106.243-93.022,229.721-7.074,278.972,84.872
				C428.328,252.077,440.359,354.791,316.347,429.192z"/>
		</g>
		<g opacity="0.3">
			<path fill="#499233" d="M377.665,118.589c80.586,90.249,86.396,186.123-17.097,253.414
				c-81.217,52.828-199.193,87.1-284.252,20.664c-111.298-86.929-50.017-224.32,31.062-289.937
				C182.685,41.795,281.322,10.722,377.665,118.589z"/>
		</g>
		<g opacity="0.4">
			<path fill="#B7E164" d="M433.334,226.753c22.463,114.942-65.021,237.601-223.875,199.615
				C57.844,390.127,8.345,326.008,8.792,251.939C9.25,177.824,38.751,101.875,189.127,52.601
				C311.156,12.606,406.486,89.361,433.334,226.753z"/>
		</g>
		<g opacity="0.4">
			<path fill="#FDF475" d="M166.456,20.695c106.874-45.68,201.907,6.58,236.511,149.474
				c27.17,112.165-22.549,253.176-94.337,269.628C236.854,456.252,122,392.557,45.205,272.855
				C-17.126,175.732,38.702,75.31,166.456,20.695z"/>
		</g>
		<g opacity="0.3">
			<path fill="#499233" d="M316.347,429.192c-103.75,62.234-199.042,49.954-245.742-64.29
				c-36.648-89.68-48.198-211.993,33.007-283.101c106.243-93.022,229.721-7.074,278.972,84.872
				C428.328,252.077,440.359,354.791,316.347,429.192z"/>
		</g>
		<g opacity="0.3">
			<path fill="#499233" d="M377.665,118.589c80.586,90.249,86.396,186.123-17.097,253.414
				c-81.217,52.828-199.193,87.1-284.252,20.664c-111.298-86.929-50.017-224.32,31.062-289.937
				C182.685,41.795,281.322,10.722,377.665,118.589z"/>
		</g>
		<g opacity="0.4">
			<path fill="#B7E164" d="M433.334,226.753c22.463,114.942-65.021,237.601-223.875,199.615
				C57.844,390.127,8.345,326.008,8.792,251.939C9.25,177.824,38.751,101.875,189.127,52.601
				C311.156,12.606,406.486,89.361,433.334,226.753z"/>
		</g>
	</g>
</g>
<g>
	<g>
		<g>
			<g>
				<defs>
					<circle id="SVGID_1_" cx="229.938" cy="241.382" r="188.581"/>
				</defs>
				<clipPath id="SVGID_2_">
					<use xlink:href="#SVGID_1_"  overflow="visible"/>
				</clipPath>
				<g clip-path="url(#SVGID_2_)">
					
						<image overflow="visible" enable-background="new    " width="468" height="468" xlink:href="images/reciepeImg.jpg"  transform="matrix(1 0 0 1 -10.5 1.5)">
					</image>
				</g>
			</g>
		</g>
	</g>
</g>
</svg>
