<?xml version="1.0" encoding="utf-8"?>
<!-- Generator: Adobe Illustrator 16.0.0, SVG Export Plug-In . SVG Version: 6.00 Build 0)  -->
<!DOCTYPE svg PUBLIC "-//W3C//DTD SVG 1.1//EN" "http://www.w3.org/Graphics/SVG/1.1/DTD/svg11.dtd">
<svg version="1.1" id="reciepe1" xmlns="http://www.w3.org/2000/svg" xmlns:xlink="http://www.w3.org/1999/xlink" x="0px" y="0px"
	 width="468px" height="468px" viewBox="0 0 468 468" enable-background="new 0 0 468 468" xml:space="preserve">
<g id="circles_1">
	<g opacity="0.4">
		<path fill="#FDF475" d="M166.456,20.695c106.874-45.68,201.907,6.58,236.511,149.474c27.17,112.165-22.549,253.176-94.337,269.628
			C236.854,456.252,122,392.557,45.205,272.855C-17.126,175.732,38.702,75.31,166.456,20.695z"/>
	</g>
	<g opacity="0.3">
		<path fill="#499233" d="M316.347,429.192c-103.75,62.233-199.042,49.953-245.742-64.29
			c-36.648-89.68-48.198-211.993,33.007-283.102c106.243-93.022,229.721-7.074,278.972,84.872
			C428.328,252.077,440.359,354.791,316.347,429.192z"/>
	</g>
	<g opacity="0.3">
		<path fill="#499233" d="M377.665,118.589c80.586,90.249,86.396,186.123-17.097,253.414
			c-81.217,52.828-199.193,87.1-284.252,20.664c-111.298-86.929-50.017-224.32,31.062-289.937
			C182.685,41.795,281.322,10.722,377.665,118.589z"/>
	</g>
	<g opacity="0.4">
		<path fill="#B7E164" d="M433.334,226.753c22.463,114.942-65.021,237.602-223.875,199.615
			C57.844,390.127,8.345,326.008,8.792,251.939C9.25,177.824,38.751,101.875,189.127,52.601
			C311.156,12.606,406.486,89.361,433.334,226.753z"/>
	</g>
	<g opacity="0.4">
		<path fill="#FDF475" d="M166.456,20.695c106.874-45.68,201.907,6.58,236.511,149.474c27.17,112.165-22.549,253.176-94.337,269.628
			C236.854,456.252,122,392.557,45.205,272.855C-17.126,175.732,38.702,75.31,166.456,20.695z"/>
	</g>
	<g opacity="0.3">
		<path fill="#499233" d="M316.347,429.192c-103.75,62.233-199.042,49.953-245.742-64.29
			c-36.648-89.68-48.198-211.993,33.007-283.102c106.243-93.022,229.721-7.074,278.972,84.872
			C428.328,252.077,440.359,354.791,316.347,429.192z"/>
	</g>
	<g opacity="0.3">
		<path fill="#499233" d="M377.665,118.589c80.586,90.249,86.396,186.123-17.097,253.414
			c-81.217,52.828-199.193,87.1-284.252,20.664c-111.298-86.929-50.017-224.32,31.062-289.937
			C182.685,41.795,281.322,10.722,377.665,118.589z"/>
	</g>
	<g opacity="0.4">
		<path fill="#B7E164" d="M433.334,226.753c22.463,114.942-65.021,237.602-223.875,199.615
			C57.844,390.127,8.345,326.008,8.792,251.939C9.25,177.824,38.751,101.875,189.127,52.601
			C311.156,12.606,406.486,89.361,433.334,226.753z"/>
	</g>
	<g opacity="0.4">
		<path fill="#FDF475" d="M166.456,20.695c106.874-45.68,201.907,6.58,236.511,149.474c27.17,112.165-22.549,253.176-94.337,269.628
			C236.854,456.252,122,392.557,45.205,272.855C-17.126,175.732,38.702,75.31,166.456,20.695z"/>
	</g>
	<g opacity="0.3">
		<path fill="#499233" d="M316.347,429.192c-103.75,62.233-199.042,49.953-245.742-64.29
			c-36.648-89.68-48.198-211.993,33.007-283.102c106.243-93.022,229.721-7.074,278.972,84.872
			C428.328,252.077,440.359,354.791,316.347,429.192z"/>
	</g>
	<g opacity="0.3">
		<path fill="#499233" d="M377.665,118.589c80.586,90.249,86.396,186.123-17.097,253.414
			c-81.217,52.828-199.193,87.1-284.252,20.664c-111.298-86.929-50.017-224.32,31.062-289.937
			C182.685,41.795,281.322,10.722,377.665,118.589z"/>
	</g>
	<g opacity="0.4">
		<path fill="#B7E164" d="M433.334,226.753c22.463,114.942-65.021,237.602-223.875,199.615
			C57.844,390.127,8.345,326.008,8.792,251.939C9.25,177.824,38.751,101.875,189.127,52.601
			C311.156,12.606,406.486,89.361,433.334,226.753z"/>
	</g>
	<g opacity="0.4">
		<path fill="#FDF475" d="M166.456,20.695c106.874-45.68,201.907,6.58,236.511,149.474c27.17,112.165-22.549,253.176-94.337,269.628
			C236.854,456.252,122,392.557,45.205,272.855C-17.126,175.732,38.702,75.31,166.456,20.695z"/>
	</g>
	<g opacity="0.3">
		<path fill="#499233" d="M316.347,429.192c-103.75,62.233-199.042,49.953-245.742-64.29
			c-36.648-89.68-48.198-211.993,33.007-283.102c106.243-93.022,229.721-7.074,278.972,84.872
			C428.328,252.077,440.359,354.791,316.347,429.192z"/>
	</g>
	<g opacity="0.3">
		<path fill="#499233" d="M377.665,118.589c80.586,90.249,86.396,186.123-17.097,253.414
			c-81.217,52.828-199.193,87.1-284.252,20.664c-111.298-86.929-50.017-224.32,31.062-289.937
			C182.685,41.795,281.322,10.722,377.665,118.589z"/>
	</g>
	<g opacity="0.4">
		<path fill="#B7E164" d="M433.334,226.753c22.463,114.942-65.021,237.602-223.875,199.615
			C57.844,390.127,8.345,326.008,8.792,251.939C9.25,177.824,38.751,101.875,189.127,52.601
			C311.156,12.606,406.486,89.361,433.334,226.753z"/>
	</g>
</g>
<g id="reciepe1_clipGroup">
	<defs>
		<circle id="reciepe1_cliper" cx="229.938" cy="241.382" r="188.581"/>
	</defs>
	<clipPath id="reciepe1_cliper_1_">
		<use xlink:href="#reciepe1_cliper"  overflow="visible"/>
	</clipPath>
	<g clip-path="url(#reciepe1_cliper_1_)">
		<image overflow="visible" width="380" height="380" xlink:href="images/reciepeImg.jpg"  transform="matrix(1 0 0 1 39.5 51.5)">
		</image>
	</g>
</g>
<g id="redButton" class="redButton">
	<circle fill="#A3271B" cx="368.609" cy="391.519" r="41.894"/>
	<g>
		<g>
			<path fill="#FFFFFF" d="M369.268,417.23c-14.19,0-25.714-11.521-25.714-25.713c0-14.191,11.522-25.713,25.714-25.713
				c14.192,0,25.715,11.521,25.715,25.713C394.981,405.71,383.459,417.23,369.268,417.23z M369.268,368.311
				c-12.78,0-23.207,10.426-23.207,23.209c0,12.781,10.427,23.207,23.207,23.207c12.781,0,23.207-10.426,23.207-23.207
				C392.475,378.736,382.049,368.311,369.268,368.311z"/>
		</g>
		<g>
			<path fill="#FFFFFF" d="M364.06,402.455c-0.521,0-0.977-0.131-1.432-0.391c-0.912-0.521-1.497-1.498-1.497-2.539V383.51
				c0-1.042,0.585-2.018,1.497-2.537c0.911-0.521,2.02-0.521,2.929,0l13.672,8.006c0.91,0.521,1.433,1.498,1.433,2.539
				c0,1.043-0.586,2.019-1.433,2.539l-13.672,8.008C365.102,402.324,364.58,402.455,364.06,402.455z"/>
		</g>
	</g>
</g>
</svg>
