<?xml version="1.0" encoding="utf-8"?>
<!-- Generator: Adobe Illustrator 16.0.0, SVG Export Plug-In . SVG Version: 6.00 Build 0)  -->
<!DOCTYPE svg PUBLIC "-//W3C//DTD SVG 1.1//EN" "http://www.w3.org/Graphics/SVG/1.1/DTD/svg11.dtd">
<svg version="1.1" id="reciepeYellow" xmlns="http://www.w3.org/2000/svg" xmlns:xlink="http://www.w3.org/1999/xlink" x="0px" y="0px"
	 width="468px" height="468px" viewBox="0 0 468 468" enable-background="new 0 0 468 468" xml:space="preserve">
<g>
	<g id="circles_1">
		<g>
			<path fill="#FFE269" d="M41.562,315.949C-20.263,207.652-8.063,108.187,105.438,59.445
				C194.538,21.191,316.057,9.138,386.697,93.9c92.418,110.896,7.026,239.786-84.321,291.189
				C217.53,432.84,115.482,445.395,41.562,315.949z"/>
		</g>
		<g>
			<path fill="#F9DE5B" d="M447.406,159.492c45.386,111.557-6.535,210.752-148.5,246.874
				C187.47,434.728,47.38,382.831,31.033,307.893C14.685,232.975,77.967,113.089,196.887,32.93
				C293.379-32.136,393.146,26.144,447.406,159.492z"/>
		</g>
		<g>
			<path fill="#FFF0B0" d="M246.76,462.139C132.565,485.591,10.701,394.271,48.443,228.461
				C84.447,70.203,148.146,18.535,221.73,19.002c73.635,0.479,149.09,31.271,198.049,188.233
				C459.514,334.609,383.258,434.116,246.76,462.139z"/>
		</g>
		<g opacity="0.3">
			<path fill="#FFC408" d="M41.562,315.949C-20.263,207.652-8.063,108.187,105.438,59.445
				C194.538,21.191,316.057,9.138,386.697,93.9c92.418,110.896,7.026,239.786-84.321,291.189
				C217.53,432.84,115.482,445.395,41.562,315.949z"/>
		</g>
		<g opacity="0.3">
			<path fill="#FFC408" d="M350.148,379.957c-89.664,84.114-184.912,90.177-251.764-17.85
				c-52.486-84.771-86.537-207.92-20.53-296.701c86.361-116.176,222.861-52.209,288.053,32.42
				C426.445,176.433,457.316,279.393,350.148,379.957z"/>
		</g>
		<g opacity="0.3">
			<path fill="#FFC408" d="M350.148,379.957c-89.664,84.114-184.912,90.177-251.764-17.85
				c-52.486-84.771-86.537-207.92-20.53-296.701c86.361-116.176,222.861-52.209,288.053,32.42
				C426.445,176.433,457.316,279.393,350.148,379.957z"/>
		</g>
		<g>
			<path fill="#FFC408" d="M279.846,440.172c-93.607,19.221-193.506-55.639-162.562-191.555
				c29.51-129.726,81.729-172.085,142.05-171.705c60.359,0.394,122.212,25.635,162.339,154.304
				C454.244,335.631,391.737,417.199,279.846,440.172z"/>
		</g>
	</g>
	<g>
		<g>
			<defs>
				<circle id="reciepeYellow_1_" cx="245.934" cy="230.14" r="188.581"/>
			</defs>
			<clipPath id="reciepeYellow_2_">
				<use xlink:href="#reciepeYellow_1_"  overflow="visible"/>
			</clipPath>
			<g clip-path="url(#reciepeYellow_2_)" enable-background="new    ">
				
					<image overflow="visible" width="380" height="380" xlink:href="images/Recipes_Yellow.jpg"  transform="matrix(1 0 0 1 55.0007 39.001)">
				</image>
			</g>
		</g>
	</g>
</g>
<g id="redButton" class="redButton">
	<circle fill="#A3271B" cx="368.609" cy="391.519" r="41.894"/>
	<g>
		<g>
			<path fill="#FFFFFF" d="M369.268,417.23c-14.19,0-25.714-11.521-25.714-25.713c0-14.191,11.522-25.713,25.714-25.713
				c14.192,0,25.715,11.521,25.715,25.713C394.981,405.71,383.459,417.23,369.268,417.23z M369.268,368.311
				c-12.78,0-23.207,10.426-23.207,23.209c0,12.781,10.427,23.207,23.207,23.207c12.781,0,23.207-10.426,23.207-23.207
				C392.475,378.736,382.049,368.311,369.268,368.311z"/>
		</g>
		<g>
			<path fill="#FFFFFF" d="M364.06,402.455c-0.521,0-0.977-0.131-1.432-0.391c-0.912-0.521-1.497-1.498-1.497-2.539V383.51
				c0-1.042,0.585-2.018,1.497-2.537c0.911-0.521,2.02-0.521,2.929,0l13.672,8.006c0.91,0.521,1.433,1.498,1.433,2.539
				c0,1.043-0.586,2.019-1.433,2.539l-13.672,8.008C365.102,402.324,364.58,402.455,364.06,402.455z"/>
		</g>
	</g>
</g>
</svg>
