<?xml version="1.0" encoding="utf-8"?>
<!-- Generator: Adobe Illustrator 16.0.0, SVG Export Plug-In . SVG Version: 6.00 Build 0)  -->
<!DOCTYPE svg PUBLIC "-//W3C//DTD SVG 1.1//EN" "http://www.w3.org/Graphics/SVG/1.1/DTD/svg11.dtd">
<svg version="1.1" id="reciepeBlue" xmlns="http://www.w3.org/2000/svg" xmlns:xlink="http://www.w3.org/1999/xlink" x="0px"
	 y="0px" width="468px" height="468px" viewBox="0 0 468 468" enable-background="new 0 0 468 468" xml:space="preserve">
<g>
	<g id="circles_1">
		<g opacity="0.4">
			<path fill="#C3B8F4" d="M295.009,444.541c-108.268,50.975-254.207-5.005-259.71-171.82
				c-5.25-159.188,45.062-224.216,118.92-242.298c73.867-18.049,157.518-7.804,247.545,128.795
				C474.824,270.04,424.429,383.622,295.009,444.541z"/>
		</g>
		<g opacity="0.4">
			<path fill="#51BDEB" d="M171.985,26.734c96.816-53.92,187.875-4.294,238.029,127.916c39.375,103.75,12.263,205.12-62.47,271.937
				c-97.809,87.435-224.951-8.446-276.514-116.479C23.135,209.77,56.244,91.196,171.985,26.734z"/>
		</g>
		<g opacity="0.4">
			<path fill="#2F8CEB" d="M446.606,224.453c23.768,116.805-49.643,219.372-200.62,201.458
				c-82.898-9.847-203.667-55.95-225.567-157.703C4.523,194.342,41.805,110.651,178.843,61.418
				C290.027,21.481,418.213,84.825,446.606,224.453z"/>
		</g>
		<g opacity="0.4">
			<path fill="#C3B8F4" d="M295.009,444.541c-108.268,50.975-254.207-5.005-259.71-171.82
				c-5.25-159.188,45.062-224.216,118.92-242.298c73.867-18.049,157.518-7.804,247.545,128.795
				C474.824,270.04,424.429,383.622,295.009,444.541z"/>
		</g>
		<g opacity="0.4">
			<path fill="#51BDEB" d="M171.985,26.734c96.816-53.92,187.875-4.294,238.029,127.916c39.375,103.75,12.263,205.12-62.47,271.937
				c-97.809,87.435-224.951-8.446-276.514-116.479C23.135,209.77,56.244,91.196,171.985,26.734z"/>
		</g>
		<g opacity="0.4">
			<path fill="#2F8CEB" d="M446.606,224.453c23.768,116.805-49.643,219.372-200.62,201.458
				c-82.898-9.847-203.667-55.95-225.567-157.703C4.523,194.342,41.805,110.651,178.843,61.418
				C290.027,21.481,418.213,84.825,446.606,224.453z"/>
		</g>
		<g opacity="0.3">
			<path fill="#2F8CEB" d="M410.015,154.65c-5.479-14.418-11.429-27.869-17.829-40.285
				c-54.604-59.591-137.892-80.049-213.339-52.948C135.475,77,102.075,96.054,77.204,117.135
				c-34.377,59.528-36.31,129.854-6.172,192.971c13.592,28.5,32.475,56.162,54.68,79.847c39.63,20.184,83.646,31.608,120.275,35.961
				c46.88,5.56,86.278-0.498,117.621-14.976C425.967,344.504,446.409,250.596,410.015,154.65z"/>
		</g>
	</g>
	<g>
		<g>
			<defs>
				<circle id="reciepeBlue_1_" cx="249" cy="244" r="188.581"/>
			</defs>
			<clipPath id="reciepeBlue_2_">
				<use xlink:href="#reciepeBlue_1_"  overflow="visible"/>
			</clipPath>
			<g clip-path="url(#reciepeBlue_2_)" enable-background="new    ">
				
					<image overflow="visible" width="380" height="380" xlink:href="images/Recipes_Blue.jpg"  transform="matrix(1 0 0 1 57.9993 53.7949)">
				</image>
			</g>
		</g>
	</g>
</g>
<g id="redButton" class="redButton">
	<circle fill="#A3271B" cx="368.609" cy="391.519" r="41.894"/>
	<g>
		<g>
			<path fill="#FFFFFF" d="M369.268,417.23c-14.19,0-25.714-11.521-25.714-25.713c0-14.191,11.522-25.713,25.714-25.713
				c14.192,0,25.715,11.521,25.715,25.713C394.981,405.71,383.459,417.23,369.268,417.23z M369.268,368.311
				c-12.78,0-23.207,10.426-23.207,23.209c0,12.781,10.427,23.207,23.207,23.207c12.781,0,23.207-10.426,23.207-23.207
				C392.475,378.736,382.049,368.311,369.268,368.311z"/>
		</g>
		<g>
			<path fill="#FFFFFF" d="M364.06,402.455c-0.521,0-0.977-0.131-1.432-0.391c-0.912-0.521-1.497-1.498-1.497-2.539V383.51
				c0-1.042,0.585-2.018,1.497-2.537c0.911-0.521,2.02-0.521,2.929,0l13.672,8.006c0.91,0.521,1.433,1.498,1.433,2.539
				c0,1.043-0.586,2.019-1.433,2.539l-13.672,8.008C365.102,402.324,364.58,402.455,364.06,402.455z"/>
		</g>
	</g>
</g>
</svg>
