<?xml version="1.0" encoding="utf-8"?>
<!-- Generator: Adobe Illustrator 16.0.0, SVG Export Plug-In . SVG Version: 6.00 Build 0)  -->
<!DOCTYPE svg PUBLIC "-//W3C//DTD SVG 1.1//EN" "http://www.w3.org/Graphics/SVG/1.1/DTD/svg11.dtd">
<svg version="1.1" id="yellow" xmlns="http://www.w3.org/2000/svg" xmlns:xlink="http://www.w3.org/1999/xlink" x="0px" y="0px"
	 width="216px" height="216px" viewBox="0 0 216 216" enable-background="new 0 0 216 216" xml:space="preserve">
<g>
	<g id="circles_1">
		<g opacity="0.4">
			<path fill="#F9DE5B" d="M207.141,70.89c21.19,49.575-3.052,93.657-69.336,109.709c-52.03,12.604-117.438-10.459-125.071-43.762
				c-7.633-33.293,21.914-86.57,77.438-122.192C135.225-14.269,181.807,11.63,207.141,70.89z"/>
		</g>
		<g opacity="0.3">
			<path fill="#FF9406" d="M17.651,140.419C-11.216,92.292-5.52,48.09,47.475,26.429c41.6-17,98.337-22.356,131.32,15.312
				c43.15,49.282,3.281,106.56-39.369,129.403C99.81,192.364,52.164,197.943,17.651,140.419z"/>
		</g>
		<g opacity="0.3">
			<path fill="#FF9406" d="M161.73,168.863c-41.864,37.38-86.335,40.074-117.549-7.932C19.676,123.26,3.778,68.532,34.596,29.078
				C74.918-22.55,138.65,5.877,169.088,43.486C197.354,78.418,211.768,124.173,161.73,168.863z"/>
		</g>
		<g opacity="0.4">
			<path fill="#F2AF43" d="M113.458,205.385C60.14,215.807,3.241,175.225,20.863,101.539C37.674,31.21,67.415,8.249,101.772,8.456
				c34.38,0.213,69.61,13.897,92.469,83.65C212.793,148.712,177.189,192.932,113.458,205.385z"/>
		</g>
		<g opacity="0.3">
			<path fill="#FF9406" d="M17.651,140.419C-11.216,92.292-5.52,48.09,47.475,26.429c41.6-17,98.337-22.356,131.32,15.312
				c43.15,49.282,3.281,106.56-39.369,129.403C99.81,192.364,52.164,197.943,17.651,140.419z"/>
		</g>
		<g opacity="0.3">
			<path fill="#FF9406" d="M161.73,168.863c-41.864,37.38-86.335,40.074-117.549-7.932C19.676,123.26,3.778,68.532,34.596,29.078
				C74.918-22.55,138.65,5.877,169.088,43.486C197.354,78.418,211.768,124.173,161.73,168.863z"/>
		</g>
		<g opacity="0.4">
			<path fill="#F2AF43" d="M110.641,177.081c-43.706,8.541-90.348-24.726-75.899-85.126C48.52,34.305,72.9,15.481,101.064,15.65
				c28.183,0.175,57.062,11.392,75.797,68.571C192.068,130.623,162.884,166.872,110.641,177.081z"/>
		</g>
	</g>
</g>
<g>
	<defs>
		<circle id="imgCircle" cx="103.139" cy="105.5" r="85.545"/>
	</defs>
	<clipPath id="imgClip">
		<use xlink:href="#imgCircle"  overflow="visible"/>
	</clipPath>
	<g clip-path="url(#imgClip)">		
			<image overflow="visible" width="216" height="216" xlink:href="testimonial.jpg"  transform="matrix(0.8519 0 0 0.8519 12 16)">
		</image>
	</g>
</g>
</svg>
