<?xml version="1.0" encoding="utf-8"?>
<!-- Generator: Adobe Illustrator 16.0.0, SVG Export Plug-In . SVG Version: 6.00 Build 0)  -->
<!DOCTYPE svg PUBLIC "-//W3C//DTD SVG 1.1//EN" "http://www.w3.org/Graphics/SVG/1.1/DTD/svg11.dtd">
<svg version="1.1" id="Layer_1" xmlns="http://www.w3.org/2000/svg" xmlns:xlink="http://www.w3.org/1999/xlink" x="0px" y="0px"
	 width="420px" height="420px" viewBox="0 0 420 420" enable-background="new 0 0 420 420" xml:space="preserve">
<g>
	<g>
		<g opacity="0.4">
			<path fill="#C3B8F4" d="M263.605,394.998c-95.13,44.787-223.363-4.398-228.197-150.977C30.793,104.148,75.001,47.01,139.9,31.122
				c64.902-15.859,138.403-6.856,217.509,113.168C421.606,241.667,377.324,341.468,263.605,394.998z"/>
		</g>
		<g opacity="0.4">
			<path fill="#51BDEB" d="M155.51,27.88c85.067-47.376,165.08-3.772,209.149,112.397c34.597,91.161,10.774,180.231-54.894,238.944
				c-85.938,76.825-197.656-7.424-242.964-102.35C24.718,188.709,53.811,84.521,155.51,27.88z"/>
		</g>
		<g opacity="0.4">
			<path fill="#2F8CEB" d="M396.811,201.611c20.887,102.632-43.617,192.756-176.277,177.016
				c-72.84-8.652-178.955-49.163-198.198-138.57c-13.97-64.902,18.79-138.44,139.201-181.701
				C259.23,23.266,371.861,78.925,396.811,201.611z"/>
		</g>
		<g opacity="0.4">
			<path fill="#C3B8F4" d="M263.605,394.998c-95.13,44.787-223.363-4.398-228.197-150.977C30.793,104.148,75.001,47.01,139.9,31.122
				c64.902-15.859,138.403-6.856,217.509,113.168C421.606,241.667,377.324,341.468,263.605,394.998z"/>
		</g>
		<g opacity="0.4">
			<path fill="#51BDEB" d="M155.51,27.88c85.067-47.376,165.08-3.772,209.149,112.397c34.597,91.161,10.774,180.231-54.894,238.944
				c-85.938,76.825-197.656-7.424-242.964-102.35C24.718,188.709,53.811,84.521,155.51,27.88z"/>
		</g>
		<g opacity="0.4">
			<path fill="#2F8CEB" d="M396.811,201.611c20.887,102.632-43.617,192.756-176.277,177.016
				c-72.84-8.652-178.955-49.163-198.198-138.57c-13.97-64.902,18.79-138.44,139.201-181.701
				C259.23,23.266,371.861,78.925,396.811,201.611z"/>
		</g>
		<g opacity="0.3">
			<path fill="#2F8CEB" d="M364.659,140.277c-4.813-12.669-10.042-24.487-15.667-35.398c-47.979-52.36-121.16-70.337-187.452-46.523
				c-38.111,13.692-67.457,30.434-89.312,48.957c-30.207,52.306-31.904,114.098-5.426,169.557
				c11.943,25.042,28.534,49.349,48.046,70.159c34.821,17.733,73.497,27.772,105.685,31.598
				c41.189,4.885,75.809-0.438,103.351-13.158C378.676,307.098,396.639,224.582,364.659,140.277z"/>
		</g>
	</g>
	<path fill="#FFFFFF" d="M364.576,210.002c0,85.367-69.207,154.572-154.576,154.572S55.425,295.369,55.425,210.002
		c0-85.372,69.207-154.576,154.575-154.576C295.369,55.427,364.576,124.63,364.576,210.002z"/>
	<image overflow="visible" enable-background="new    " width="420" height="420" xlink:href="The-Power-of-Protein.png" >
	</image>
</g>
</svg>
