<?xml version="1.0" encoding="utf-8"?>
<!-- Generator: Adobe Illustrator 16.0.0, SVG Export Plug-In . SVG Version: 6.00 Build 0)  -->
<!DOCTYPE svg PUBLIC "-//W3C//DTD SVG 1.1//EN" "http://www.w3.org/Graphics/SVG/1.1/DTD/svg11.dtd">
<svg version="1.1" id="Layer_1" xmlns="http://www.w3.org/2000/svg" xmlns:xlink="http://www.w3.org/1999/xlink" x="0px" y="0px"
	 width="420px" height="420px" viewBox="0 0 420 420" enable-background="new 0 0 420 420" xml:space="preserve">
<g>
	<g>
		<g>
			<path fill="#FFE269" d="M43.432,280.938C-10.083,187.198,0.479,101.103,98.723,58.912c77.12-33.111,182.304-43.544,243.45,29.824
				c79.992,95.988,6.078,207.553-72.987,252.046C195.744,382.111,107.415,392.979,43.432,280.938z"/>
		</g>
		<g>
			<path fill="#F9DE5B" d="M394.719,145.51c39.284,96.562-5.654,182.422-128.537,213.689
				c-96.457,24.547-217.715-20.372-231.862-85.238C20.17,209.114,74.943,105.344,177.879,35.962
				C261.398-20.359,347.754,30.086,394.719,145.51z"/>
		</g>
		<g>
			<path fill="#FFF0B0" d="M221.048,407.471c-98.847,20.308-204.329-58.736-171.659-202.263
				C80.552,68.224,135.688,23.501,199.381,23.904c63.738,0.415,129.047,27.068,171.426,162.929
				C405.2,297.086,339.195,383.221,221.048,407.471z"/>
		</g>
		<g opacity="0.3">
			<path fill="#FFC408" d="M43.432,280.938C-10.083,187.198,0.479,101.103,98.723,58.912c77.12-33.111,182.304-43.544,243.45,29.824
				c79.992,95.988,6.078,207.553-72.987,252.046C195.744,382.111,107.415,392.979,43.432,280.938z"/>
		</g>
		<g opacity="0.3">
			<path fill="#FFC408" d="M310.536,336.336c-77.613,72.809-160.056,78.059-217.921-15.447
				c-45.431-73.375-74.903-179.97-17.771-256.812c74.752-100.559,192.902-45.192,249.33,28.062
				C376.574,160.174,403.299,249.293,310.536,336.336z"/>
		</g>
		<g opacity="0.3">
			<path fill="#FFC408" d="M310.536,336.336c-77.613,72.809-160.056,78.059-217.921-15.447
				c-45.431-73.375-74.903-179.97-17.771-256.812c74.752-100.559,192.902-45.192,249.33,28.062
				C376.574,160.174,403.299,249.293,310.536,336.336z"/>
		</g>
		<g>
			<path fill="#FFC408" d="M249.684,388.459c-81.021,16.639-167.492-48.161-140.707-165.807
				C134.52,110.368,179.719,73.703,231.93,74.032c52.245,0.342,105.782,22.188,140.521,133.562
				C400.637,297.969,346.534,368.574,249.684,388.459z"/>
		</g>
	</g>
	<path fill="#FFFFFF" d="M364.576,210.002c0,85.367-69.207,154.572-154.576,154.572S55.425,295.369,55.425,210.002
		c0-85.372,69.207-154.576,154.575-154.576C295.369,55.427,364.576,124.63,364.576,210.002z"/>
</g>
<image overflow="visible" enable-background="new    " width="420" height="420" xlink:href="What-is-Protein.png" >
</image>
</svg>
