<?xml version="1.0" encoding="utf-8"?>
<!-- Generator: Adobe Illustrator 16.0.0, SVG Export Plug-In . SVG Version: 6.00 Build 0)  -->
<!DOCTYPE svg PUBLIC "-//W3C//DTD SVG 1.1//EN" "http://www.w3.org/Graphics/SVG/1.1/DTD/svg11.dtd">
<svg version="1.1" id="img1" xmlns="http://www.w3.org/2000/svg" xmlns:xlink="http://www.w3.org/1999/xlink" x="0px" y="0px"
	 width="380px" height="380px" viewBox="0 0 380 380" enable-background="new 0 0 380 380" xml:space="preserve">
<g>
	<g id="circles_1">
		<g>
			<path fill="#FFE269" d="M49.163,249.979C3.915,170.719,12.845,97.924,95.911,62.251c65.208-27.996,154.143-36.817,205.844,25.217
				c67.636,81.16,5.14,175.491-61.713,213.11C177.946,335.524,103.262,344.713,49.163,249.979z"/>
		</g>
		<g>
			<path fill="#F9DE5B" d="M346.184,135.472c33.215,81.645-4.783,154.241-108.682,180.678
				c-81.555,20.756-184.082-17.224-196.044-72.07C29.493,189.251,75.805,101.511,162.839,42.847
				C233.459-4.773,306.474,37.879,346.184,135.472z"/>
		</g>
		<g>
			<path fill="#FFF0B0" d="M199.341,356.966c-83.577,17.165-172.764-49.667-145.142-171.018
				C80.549,70.125,127.167,32.311,181.021,32.652c53.892,0.351,109.113,22.887,144.944,137.76
				C355.046,263.633,299.237,336.46,199.341,356.966z"/>
		</g>
		<g opacity="0.3">
			<path fill="#FFC408" d="M49.163,249.979C3.915,170.719,12.845,97.924,95.911,62.251c65.208-27.996,154.143-36.817,205.844,25.217
				c67.636,81.16,5.14,175.491-61.713,213.11C177.946,335.524,103.262,344.713,49.163,249.979z"/>
		</g>
		<g opacity="0.3">
			<path fill="#FFC408" d="M275.005,296.821c-65.623,61.559-135.329,65.997-184.257-13.062
				C52.336,221.718,27.416,131.59,75.724,66.614c63.204-85.024,163.103-38.21,210.814,23.727
				C330.843,147.871,353.438,223.223,275.005,296.821z"/>
		</g>
		<g opacity="0.3">
			<path fill="#FFC408" d="M275.005,296.821c-65.623,61.559-135.329,65.997-184.257-13.062
				C52.336,221.718,27.416,131.59,75.724,66.614c63.204-85.024,163.103-38.21,210.814,23.727
				C330.843,147.871,353.438,223.223,275.005,296.821z"/>
		</g>
		<g>
			<path fill="#FFC408" d="M223.553,340.891c-68.506,14.068-141.618-40.721-118.971-140.192
				c21.597-94.94,59.814-125.941,103.96-125.663c44.175,0.289,89.44,18.761,118.81,112.929
				C351.188,264.38,305.441,324.078,223.553,340.891z"/>
		</g>
	</g>
	<path fill="#FFFFFF" d="M320.697,190.002c0,72.18-58.516,130.693-130.697,130.693S59.303,262.182,59.303,190.002
		c0-72.184,58.516-130.697,130.697-130.697S320.697,117.818,320.697,190.002z"/>
	
		<image overflow="visible" width="200" height="200" xlink:href="01.png"  transform="matrix(1.9 0 0 1.9 -4.882812e-04 -4.882812e-04)">
	</image>
</g>
</svg>
