<?xml version="1.0" encoding="utf-8"?>
<!-- Generator: Adobe Illustrator 16.0.0, SVG Export Plug-In . SVG Version: 6.00 Build 0)  -->
<!DOCTYPE svg PUBLIC "-//W3C//DTD SVG 1.1//EN" "http://www.w3.org/Graphics/SVG/1.1/DTD/svg11.dtd">
<svg version="1.1" id="img2" xmlns="http://www.w3.org/2000/svg" xmlns:xlink="http://www.w3.org/1999/xlink" x="0px" y="0px"
	 width="380px" height="380px" viewBox="0 0 380 380" enable-background="new 0 0 380 380" xml:space="preserve">
<g id="circles_1">
	<g opacity="0.4">
		<path fill="#C3B8F4" d="M237.973,355.554c-85.133,40.082-199.889-3.937-204.215-135.107
			C29.628,95.274,69.19,44.141,127.267,29.923c58.083-14.192,123.859-6.136,194.649,101.274
			C379.366,218.339,339.738,307.651,237.973,355.554z"/>
	</g>
	<g opacity="0.4">
		<path fill="#51BDEB" d="M141.236,27.022c76.128-42.398,147.731-3.376,187.168,100.583c30.961,81.581,9.643,161.29-49.122,213.83
			c-76.908,68.752-176.884-6.642-217.428-91.591C24.192,170.947,50.227,77.709,141.236,27.022z"/>
	</g>
	<g opacity="0.4">
		<path fill="#2F8CEB" d="M357.177,182.493c18.689,91.846-39.035,172.497-157.752,158.411
			c-65.185-7.743-160.148-43.995-177.369-124.006C9.557,158.816,38.873,93.007,146.629,54.294
			C234.056,22.892,334.851,72.701,357.177,182.493z"/>
	</g>
	<g opacity="0.4">
		<path fill="#C3B8F4" d="M237.973,355.554c-85.133,40.082-199.889-3.937-204.215-135.107
			C29.628,95.274,69.19,44.141,127.267,29.923c58.083-14.192,123.859-6.136,194.649,101.274
			C379.366,218.339,339.738,307.651,237.973,355.554z"/>
	</g>
	<g opacity="0.4">
		<path fill="#51BDEB" d="M141.236,27.022c76.128-42.398,147.731-3.376,187.168,100.583c30.961,81.581,9.643,161.29-49.122,213.83
			c-76.908,68.752-176.884-6.642-217.428-91.591C24.192,170.947,50.227,77.709,141.236,27.022z"/>
	</g>
	<g opacity="0.4">
		<path fill="#2F8CEB" d="M357.177,182.493c18.689,91.846-39.035,172.497-157.752,158.411
			c-65.185-7.743-160.148-43.995-177.369-124.006C9.557,158.816,38.873,93.007,146.629,54.294
			C234.056,22.892,334.851,72.701,357.177,182.493z"/>
	</g>
	<g opacity="0.3">
		<path fill="#2F8CEB" d="M328.404,127.605c-4.308-11.337-8.986-21.914-14.02-31.677C271.449,49.07,205.958,32.984,146.633,54.294
			C112.528,66.547,86.265,81.53,66.708,98.106c-27.032,46.808-28.551,102.106-4.854,151.737
			c10.688,22.41,25.535,44.161,42.996,62.785c31.162,15.87,65.772,24.854,94.576,28.276c36.861,4.372,67.842-0.392,92.488-11.775
			C340.947,276.892,357.022,203.05,328.404,127.605z"/>
	</g>
</g>
<path fill="#FFFFFF" d="M320.698,190.003c0,72.18-58.516,130.693-130.697,130.693c-72.181,0-130.697-58.514-130.697-130.693
	c0-72.184,58.516-130.697,130.697-130.697C262.183,59.306,320.698,117.819,320.698,190.003z"/>
<image overflow="visible" enable-background="new    " width="200" height="200" xlink:href="01.png"  transform="matrix(1.9 0 0 1.9 0 0)">
</image>
</svg>
