<?xml version="1.0" encoding="utf-8"?>
<!-- Generator: Adobe Illustrator 16.0.0, SVG Export Plug-In . SVG Version: 6.00 Build 0)  -->
<!DOCTYPE svg PUBLIC "-//W3C//DTD SVG 1.1//EN" "http://www.w3.org/Graphics/SVG/1.1/DTD/svg11.dtd">
<svg version="1.1" id="img2" xmlns="http://www.w3.org/2000/svg" xmlns:xlink="http://www.w3.org/1999/xlink" x="0px" y="0px"
	 width="380px" height="380px" viewBox="0 0 380 380" enable-background="new 0 0 380 380" xml:space="preserve">
<g id="circles_1">
	<g opacity="0.4">
		<path fill="#DD4E47" d="M76.532,316.21C-3.226,262.72-25.843,137.76,85.443,63.221C191.64-7.908,256.849-0.578,299.895,42.986
			c43.026,43.585,70.858,105.951,15.32,226.312C270.164,366.957,171.862,380.156,76.532,316.21z"/>
	</g>
	<g opacity="0.4">
		<path fill="#A5281C" d="M309.797,53.747c76.999,44.296,81.104,128.497,11.959,219.336
			c-54.253,71.297-134.552,95.465-211.14,71.955c-100.228-30.772-87.854-159.615-35.76-241.181
			C123.238,28.096,217.748,0.792,309.797,53.747z"/>
	</g>
	<g opacity="0.4">
		<path fill="#A01C18" d="M289.459,328.058c-69.636,66.005-170.014,58.57-220.643-53.749
			C41.022,212.63,22.159,109.315,82.321,50.986c43.677-42.34,116.17-51.961,206.716,22.221
			C362.495,133.399,372.709,249.17,289.459,328.058z"/>
	</g>
	<g opacity="0.4">
		<path fill="#DD4E47" d="M76.532,316.21C-3.226,262.72-25.843,137.76,85.443,63.221C191.64-7.908,256.849-0.578,299.895,42.986
			c43.026,43.585,70.858,105.951,15.32,226.312C270.164,366.957,171.862,380.156,76.532,316.21z"/>
	</g>
	<g opacity="0.4">
		<path fill="#A5281C" d="M309.797,53.747c76.999,44.296,81.104,128.497,11.959,219.336
			c-54.253,71.297-134.552,95.465-211.14,71.955c-100.228-30.772-87.854-159.615-35.76-241.181
			C123.238,28.096,217.748,0.792,309.797,53.747z"/>
	</g>
	<g opacity="0.4">
		<path fill="#A01C18" d="M289.459,328.058c-69.636,66.005-170.014,58.57-220.643-53.749
			C41.022,212.63,22.159,109.315,82.321,50.986c43.677-42.34,116.17-51.961,206.716,22.221
			C362.495,133.399,372.709,249.17,289.459,328.058z"/>
	</g>
	<g opacity="0.3">
		<path fill="#A01C18" d="M321.757,273.084c7.537-9.913,14.219-19.743,20.008-29.447c17.851-63.14-2.878-129.584-52.727-170.43
			c-28.657-23.475-55.526-38.565-80.23-46.879c-54.834,1.391-103.519,29.865-133.952,77.529
			c-13.748,21.51-24.722,46.335-31.605,71.777c2.748,36.043,13.285,71.421,25.565,98.674c15.724,34.873,36.242,59.634,59.14,75.237
			C199.135,364.637,271.579,339.006,321.757,273.084z"/>
	</g>
</g>
<path fill="#FFFFFF" d="M320.698,190.003c0,72.18-58.516,130.693-130.697,130.693c-72.181,0-130.697-58.514-130.697-130.693
	c0-72.184,58.516-130.697,130.697-130.697C262.183,59.306,320.698,117.819,320.698,190.003z"/>
<image overflow="visible" enable-background="new    " width="200" height="200" xlink:href="01.png"  transform="matrix(1.9 0 0 1.9 0 0)">
</image>
</svg>
