<?xml version="1.0" encoding="utf-8"?>
<!-- Generator: Adobe Illustrator 16.0.0, SVG Export Plug-In . SVG Version: 6.00 Build 0)  -->
<!DOCTYPE svg PUBLIC "-//W3C//DTD SVG 1.1//EN" "http://www.w3.org/Graphics/SVG/1.1/DTD/svg11.dtd">
<svg version="1.1" id="Layer_1" xmlns="http://www.w3.org/2000/svg" xmlns:xlink="http://www.w3.org/1999/xlink" x="0px" y="0px"
	 width="380px" height="380px" viewBox="0 0 380 380" enable-background="new 0 0 380 380" xml:space="preserve">
<g>
	<g id="circles_1">
		<g opacity="0.4">
			<path fill="#FDF475" d="M144.434,18.418c85.37-36.488,161.281,5.256,188.921,119.397C355.058,227.41,315.344,340.048,258,353.189
				c-57.334,13.143-149.077-37.735-210.419-133.351C-2.208,142.259,42.387,62.044,144.434,18.418z"/>
		</g>
		<g opacity="0.3">
			<path fill="#499233" d="M264.164,344.719c-82.873,49.71-158.991,39.901-196.293-51.354
				c-29.274-71.635-38.5-169.335,26.365-226.137c84.866-74.304,183.498-5.65,222.838,67.794
				C353.613,203.243,363.224,285.287,264.164,344.719z"/>
		</g>
		<g opacity="0.3">
			<path fill="#499233" d="M313.145,96.614c64.371,72.089,69.012,148.672-13.656,202.423
				c-64.875,42.198-159.112,69.574-227.056,16.506C-16.471,246.105,32.479,136.36,97.244,83.946
				C157.398,35.272,236.188,10.452,313.145,96.614z"/>
		</g>
		<g opacity="0.4">
			<path fill="#B7E164" d="M357.611,183.014c17.943,91.813-51.938,189.79-178.827,159.449
				C57.677,313.514,18.138,262.296,18.495,203.132C18.86,143.93,42.426,83.263,162.543,43.904
				C260.019,11.957,336.166,73.267,357.611,183.014z"/>
		</g>
		<g opacity="0.4">
			<path fill="#FDF475" d="M144.434,18.418c85.37-36.488,161.281,5.256,188.921,119.397C355.058,227.41,315.344,340.048,258,353.189
				c-57.334,13.143-149.077-37.735-210.419-133.351C-2.208,142.259,42.387,62.044,144.434,18.418z"/>
		</g>
		<g opacity="0.3">
			<path fill="#499233" d="M264.164,344.719c-82.873,49.71-158.991,39.901-196.293-51.354
				c-29.274-71.635-38.5-169.335,26.365-226.137c84.866-74.304,183.498-5.65,222.838,67.794
				C353.613,203.243,363.224,285.287,264.164,344.719z"/>
		</g>
		<g opacity="0.3">
			<path fill="#499233" d="M313.145,96.614c64.371,72.089,69.012,148.672-13.656,202.423
				c-64.875,42.198-159.112,69.574-227.056,16.506C-16.471,246.105,32.479,136.36,97.244,83.946
				C157.398,35.272,236.188,10.452,313.145,96.614z"/>
		</g>
		<g opacity="0.4">
			<path fill="#B7E164" d="M357.611,183.014c17.943,91.813-51.938,189.79-178.827,159.449
				C57.677,313.514,18.138,262.296,18.495,203.132C18.86,143.93,42.426,83.263,162.543,43.904
				C260.019,11.957,336.166,73.267,357.611,183.014z"/>
		</g>
	</g>
	<g>
		<g opacity="0.4">
			<path fill="#FDF475" d="M144.434,18.418c85.37-36.488,161.281,5.256,188.921,119.397C355.058,227.41,315.344,340.048,258,353.189
				c-57.334,13.143-149.077-37.735-210.419-133.351C-2.208,142.259,42.387,62.044,144.434,18.418z"/>
		</g>
		<g opacity="0.3">
			<path fill="#499233" d="M264.164,344.719c-82.873,49.71-158.991,39.901-196.293-51.354
				c-29.274-71.635-38.5-169.335,26.365-226.137c84.866-74.304,183.498-5.65,222.838,67.794
				C353.613,203.243,363.224,285.287,264.164,344.719z"/>
		</g>
		<g opacity="0.3">
			<path fill="#499233" d="M313.145,96.614c64.371,72.089,69.012,148.672-13.656,202.423
				c-64.875,42.198-159.112,69.574-227.056,16.506C-16.471,246.105,32.479,136.36,97.244,83.946
				C157.398,35.272,236.188,10.452,313.145,96.614z"/>
		</g>
		<g opacity="0.4">
			<path fill="#B7E164" d="M357.611,183.014c17.943,91.813-51.938,189.79-178.827,159.449
				C57.677,313.514,18.138,262.296,18.495,203.132C18.86,143.93,42.426,83.263,162.543,43.904
				C260.019,11.957,336.166,73.267,357.611,183.014z"/>
		</g>
		<g opacity="0.4">
			<path fill="#FDF475" d="M144.434,18.418c85.37-36.488,161.281,5.256,188.921,119.397C355.058,227.41,315.344,340.048,258,353.189
				c-57.334,13.143-149.077-37.735-210.419-133.351C-2.208,142.259,42.387,62.044,144.434,18.418z"/>
		</g>
		<g opacity="0.3">
			<path fill="#499233" d="M264.164,344.719c-82.873,49.71-158.991,39.901-196.293-51.354
				c-29.274-71.635-38.5-169.335,26.365-226.137c84.866-74.304,183.498-5.65,222.838,67.794
				C353.613,203.243,363.224,285.287,264.164,344.719z"/>
		</g>
		<g opacity="0.3">
			<path fill="#499233" d="M313.145,96.614c64.371,72.089,69.012,148.672-13.656,202.423
				c-64.875,42.198-159.112,69.574-227.056,16.506C-16.471,246.105,32.479,136.36,97.244,83.946
				C157.398,35.272,236.188,10.452,313.145,96.614z"/>
		</g>
		<g opacity="0.4">
			<path fill="#B7E164" d="M357.611,183.014c17.943,91.813-51.938,189.79-178.827,159.449
				C57.677,313.514,18.138,262.296,18.495,203.132C18.86,143.93,42.426,83.263,162.543,43.904
				C260.019,11.957,336.166,73.267,357.611,183.014z"/>
		</g>
	</g>
</g>
<path fill="#FFFFFF" d="M320.698,190.003c0,72.181-58.517,130.692-130.697,130.692c-72.181,0-130.697-58.514-130.697-130.692
	c0-72.184,58.516-130.697,130.697-130.697C262.184,59.306,320.698,117.819,320.698,190.003z"/>
<image overflow="visible" enable-background="new    " width="200" height="200" xlink:href="01.png"  transform="matrix(1.9 0 0 1.9 9.765625e-04 9.765625e-04)">
</image>
</svg>
